<svg xmlns="http://www.w3.org/2000/svg" width="29" height="29" viewBox="0 0 29 29"><defs><style>.a{fill:#e6f3fa;}.b{fill:#707070;fill-rule:evenodd;}</style></defs><g transform="translate(-203 -329)"><rect class="a" width="29" height="29" rx="14.5" transform="translate(203 329)"/><g transform="translate(211 336)"><g transform="translate(0 0)"><path class="b" d="M9.431,11.47H1.2C2.005,10.339,2.588,9.5,2.713,9.309A1.7,1.7,0,0,0,2.874,9a1.759,1.759,0,0,0,.08-.264A1.931,1.931,0,0,0,3,8.262V5.325A2.863,2.863,0,0,1,5.862,2.462h.706A2.863,2.863,0,0,1,9.431,5.325V8.262a1.9,1.9,0,0,0,.045.474A1.758,1.758,0,0,0,9.556,9a1.7,1.7,0,0,0,.16.309c.126.194.707,1.03,1.515,2.161ZM6.219,13.3a1.213,1.213,0,0,1-1.154-.855H7.373A1.213,1.213,0,0,1,6.219,13.3Zm0-12.33a1,1,0,0,1,.908.585,4.482,4.482,0,0,0-1.816,0A1,1,0,0,1,6.219.967Zm6.09,10.355L10.543,8.793a.7.7,0,0,1-.127-.4V5.126A3.826,3.826,0,0,0,9.236,2.561a3.424,3.424,0,0,0-1.054-.646,1.964,1.964,0,0,0-3.927,0,3.584,3.584,0,0,0-1.149.756A3.844,3.844,0,0,0,2.021,5.126V8.393a.7.7,0,0,1-.127.4L.128,11.322a.72.72,0,0,0,.628,1.12H4.073a2.174,2.174,0,0,0,4.291,0h3.317A.72.72,0,0,0,12.309,11.322Z" transform="translate(0 0)"/></g></g></g></svg>